<svg width="127" height="41" viewBox="0 0 127 41" fill="none" xmlns="http://www.w3.org/2000/svg">
<path d="M0 28.8095L3.18643 22.2138H17.3008L13.5774 14.5066L11.9098 17.9586H5.35466L13.5774 0.9375L27.0423 28.8095H0Z" fill="#D8803E"/>
<path d="M79.0273 39.6601V33.0645H96.2961V39.6601H79.0273Z" fill="#D8803E"/>
<path d="M29.7129 39.6601V33.0645H46.9817V39.6601H29.7129Z" fill="#D8803E"/>
<ellipse cx="63.0042" cy="36.47" rx="3.7386" ry="4.46803" fill="#D8803E"/>
<path d="M112.798 0.931641L126.263 28.8037L126.609 29.5215H85.7061L85.6241 29.4922C84.1411 28.9601 82.4419 27.864 81.7696 27.3799C78.089 24.84 76.6442 21.2701 76.3331 17.873C76.0235 14.4916 76.8325 11.2596 77.6788 9.30176L77.6827 9.29199L77.6876 9.28223C79.9598 4.57898 83.1293 2.68163 86.213 2.29395C89.2566 1.91131 92.1317 3.00942 93.8565 4.13477L93.8673 4.1416C96.8695 6.21317 98.1538 9.73489 98.5733 13.1914C98.956 16.3448 98.6299 19.5265 98.168 21.7129H101.858L111.898 0.931641L112.348 0L112.798 0.931641ZM87.9288 9.44629C84.9791 9.44631 82.588 12.3039 82.588 15.8291C82.5881 19.3541 84.9792 22.2119 87.9288 22.2119C90.8784 22.2119 93.2694 19.3541 93.2696 15.8291C93.2696 12.3039 90.8785 9.44629 87.9288 9.44629ZM109.002 21.999H116.235L112.496 14.7646L109.002 21.999Z" fill="#D8803E"/>
<path d="M63.253 0.931641L76.7178 28.8037L77.0645 29.5215H36.1612L36.0792 29.4922C34.5962 28.9601 32.897 27.864 32.2247 27.3799C28.5441 24.84 27.0993 21.2701 26.7882 17.873C26.4786 14.4916 27.2876 11.2596 28.1339 9.30176L28.1378 9.29199L28.1427 9.28223C30.4149 4.57898 33.5843 2.68163 36.668 2.29395C39.7117 1.91131 42.5868 3.00942 44.3116 4.13477L44.3223 4.1416C47.3245 6.21317 48.6089 9.73489 49.0284 13.1914C49.4111 16.3448 49.085 19.5265 48.6231 21.7129H65.8175L62.9141 15.7031L61.6749 18.2695L61.5382 18.5518H53.8399L54.1866 17.834L62.3526 0.931641L62.8028 0L63.253 0.931641ZM38.2589 9.44629C35.3092 9.44631 32.918 12.3039 32.918 15.8291C32.9182 19.3541 35.3093 22.2119 38.2589 22.2119C41.2084 22.2119 43.5995 19.3541 43.5997 15.8291C43.5997 12.3039 41.2085 9.44629 38.2589 9.44629Z" fill="#D8803E"/>
</svg>
