<svg xmlns="http://www.w3.org/2000/svg" viewBox="0 0 45 30" width="24" height="16">
  <rect width="45" height="30" fill="#B22234"/>
  <rect y="2.3" width="45" height="2.3" fill="#FFF"/>
  <rect y="6.9" width="45" height="2.3" fill="#FFF"/>
  <rect y="11.5" width="45" height="2.3" fill="#FFF"/>
  <rect y="16.1" width="45" height="2.3" fill="#FFF"/>
  <rect y="20.7" width="45" height="2.3" fill="#FFF"/>
  <rect y="25.3" width="45" height="2.3" fill="#FFF"/>
  <rect width="18" height="16.1" fill="#3C3B6E"/>
  <g fill="#FFF" font-size="2.2">
    <text x="2" y="3">★</text><text x="5.5" y="3">★</text><text x="9" y="3">★</text><text x="12.5" y="3">★</text><text x="16" y="3">★</text>
    <text x="3.7" y="5.2">★</text><text x="7.2" y="5.2">★</text><text x="10.7" y="5.2">★</text><text x="14.2" y="5.2">★</text>
    <text x="2" y="7.4">★</text><text x="5.5" y="7.4">★</text><text x="9" y="7.4">★</text><text x="12.5" y="7.4">★</text><text x="16" y="7.4">★</text>
    <text x="3.7" y="9.6">★</text><text x="7.2" y="9.6">★</text><text x="10.7" y="9.6">★</text><text x="14.2" y="9.6">★</text>
    <text x="2" y="11.8">★</text><text x="5.5" y="11.8">★</text><text x="9" y="11.8">★</text><text x="12.5" y="11.8">★</text><text x="16" y="11.8">★</text>
    <text x="3.7" y="14">★</text><text x="7.2" y="14">★</text><text x="10.7" y="14">★</text><text x="14.2" y="14">★</text>
  </g>
</svg>
